<svg width="24" height="24" viewBox="0 0 24 24" fill="none" xmlns="http://www.w3.org/2000/svg">
<path opacity="0.4" fill-rule="evenodd" clip-rule="evenodd" d="M8 0C3.58172 0 0 3.58172 0 8V16C0 20.4183 3.58172 24 8 24H16C20.4183 24 24 20.4183 24 16V8C24 3.58172 20.4183 0 16 0H8ZM15.2494 9.56174C16.1119 8.87172 16.2518 7.61313 15.5617 6.75061C14.8717 5.88809 13.6131 5.74824 12.7506 6.43826L5.79844 12L12.7506 17.5617C13.6131 18.2518 14.8717 18.1119 15.5617 17.2494C16.2518 16.3869 16.1119 15.1283 15.2494 14.4383L12.2016 12L15.2494 9.56174Z" fill="#CDCDCD"/>
</svg>
