<svg width="24" height="24" viewBox="0 0 24 24" fill="none" xmlns="http://www.w3.org/2000/svg">
<path fill-rule="evenodd" clip-rule="evenodd" d="M16 24C20.4183 24 24 20.4183 24 16L24 8C24 3.58172 20.4183 -3.13124e-07 16 -6.99382e-07L8 -1.39876e-06C3.58172 -1.78502e-06 1.78502e-06 3.58172 1.39876e-06 8L6.99382e-07 16C3.13124e-07 20.4183 3.58172 24 8 24L16 24ZM8.75061 14.4383C7.88809 15.1283 7.74824 16.3869 8.43826 17.2494C9.12828 18.1119 10.3869 18.2518 11.2494 17.5617L18.2016 12L11.2494 6.43826C10.3869 5.74824 9.12828 5.88809 8.43826 6.75061C7.74824 7.61313 7.88809 8.87172 8.75061 9.56174L11.7984 12L8.75061 14.4383Z" fill="#CDCDCD"/>
</svg>
